<?xml version="1.0" encoding="utf-8"?>
<!-- Generator: Adobe Illustrator 26.0.0, SVG Export Plug-In . SVG Version: 6.00 Build 0)  -->
<svg version="1.1" id="Layer_1" xmlns="http://www.w3.org/2000/svg"
	xmlns:xlink="http://www.w3.org/1999/xlink" x="0px" y="0px"
	viewBox="0 0 1024 218" style="enable-background:new 0 0 1024 218;" xml:space="preserve">
	<rect width="100%" height="100%" fill="white" />
<path d="M121.52,157.48h-82.6V45.42H61.2v92.84h60.32V157.48z"/>
<path d="M141.58,45.42h79.71v19.31h-57.43v25.83h49.84v19.31h-49.84v28.39h58.67v19.23h-80.95V45.42z"/>
<path d="M274.78,45.42h23.85l32.35,89.2l32.18-89.2h23.85l-42,112.06h-28.06L274.78,45.42z"/>
<path d="M405.67,45.42h79.71v19.31h-57.43v25.83h49.84v19.31h-49.84v28.39h58.67v19.23h-80.95V45.42z"/>
<path d="M520.63,120.76c5.28,10.81,15.35,18.24,28.8,18.24c10.73,0,19.23-5.2,19.23-12.46c0-7.43-8.33-11.39-21.7-15.6
	c-21.54-6.77-39.11-13.37-39.11-34.99c0-21.12,20.71-32.18,39.69-32.18c20.3,0,34.33,11.88,41.43,24.34l-17.16,12.21
	c-4.87-8.17-12.96-16.42-24.84-16.42c-8.67,0-16.34,4.62-16.34,11.97c0,8.99,8.17,10.31,22.2,15.27
	c21.04,7.43,38.54,13.12,38.54,35.24c0,21.95-22.2,32.76-42.17,32.76c-21.62,0-38.29-11.3-44.97-26.49L520.63,120.76z"/>
<path d="M638.31,157.48h-22.28V45.42h22.28V157.48z"/>
<path d="M670.17,157.48V45.42h20.22l61.97,76.91V45.42h22.28v112.06h-20.55L692.45,81.4v76.08H670.17z"/>
<path d="M806.5,45.42h79.71v19.31h-57.43v25.83h49.84v19.31h-49.84v28.39h58.67v19.23H806.5V45.42z"/>
<path d="M899.76,45.42h92.26v19.8h-34.99v92.26h-22.2V65.22h-35.07V45.42z"/>
</svg>